<?xml version="1.0" encoding="utf-8" standalone="no"?>
<!DOCTYPE svg PUBLIC "-//W3C//DTD SVG 1.1//EN"
  "http://www.w3.org/Graphics/SVG/1.1/DTD/svg11.dtd">
<!-- Created with matplotlib (http://matplotlib.org/) -->
<svg height="396pt" version="1.1" viewBox="0 0 727 396" width="727pt" xmlns="http://www.w3.org/2000/svg" xmlns:xlink="http://www.w3.org/1999/xlink">
 <defs>
  <style type="text/css">
*{stroke-linecap:butt;stroke-linejoin:round;stroke-miterlimit:100000;}
  </style>
 </defs>
 <g id="figure_1">
  <g id="patch_1">
   <path d="M -0 396.2275 
L 727.6975 396.2275 
L 727.6975 0 
L -0 0 
z
" style="fill:#ffffff;"/>
  </g>
  <g id="axes_1">
   <g id="patch_2">
    <path d="M 50.8975 352.8 
L 720.4975 352.8 
L 720.4975 7.2 
L 50.8975 7.2 
z
" style="fill:#ffffff;"/>
   </g>
   <g id="line2d_1">
    <path clip-path="url(#p5cc2dd422c)" d="M 50.8975 351.765873 
L 111.528548 350.492164 
L 147.291139 349.101591 
L 172.873197 347.625176 
L 192.877758 346.078635 
L 209.355137 344.471694 
L 223.399034 342.811069 
L 235.662289 341.101739 
L 246.566 339.347587 
L 256.397687 337.551759 
L 265.362428 335.716881 
L 273.611642 333.845202 
L 281.260322 331.938686 
L 288.39785 329.999079 
L 295.095085 328.027957 
L 301.409148 326.026759 
L 307.38676 323.996815 
L 313.066624 321.939365 
L 323.657795 317.746562 
L 333.38773 313.457017 
L 342.407842 309.078701 
L 350.833113 304.619077 
L 358.752917 300.08524 
L 366.238102 295.483997 
L 373.345779 290.821936 
L 380.122658 286.105467 
L 386.607428 281.340849 
L 392.832497 276.534213 
L 398.825278 271.691572 
L 407.429174 264.372972 
L 415.628073 257.006051 
L 423.475258 249.609681 
L 431.014487 242.202125 
L 438.282137 234.800994 
L 447.602013 224.971914 
L 456.552904 215.222123 
L 467.296258 203.199828 
L 481.639603 186.78662 
L 512.106123 151.779117 
L 522.896665 139.735411 
L 533.41694 128.344975 
L 542.004016 119.366637 
L 550.446898 110.860827 
L 558.761105 102.827204 
L 566.96014 95.26087 
L 575.055816 88.153057 
L 581.464954 82.788983 
L 587.819347 77.703391 
L 594.123296 72.888061 
L 600.380708 68.33408 
L 606.59514 64.032003 
L 614.307661 58.993648 
L 621.963817 54.313791 
L 629.568746 49.972419 
L 637.127063 45.949527 
L 644.642923 42.22535 
L 652.120071 38.78056 
L 659.56189 35.596408 
L 666.971441 32.654849 
L 674.351498 29.938612 
L 683.172163 26.953478 
L 691.957884 24.242457 
L 700.712159 21.780645 
L 705.078494 20.635912 
L 706.532429 20.492308 
L 728.6975 20.492308 
L 728.6975 20.492308 
" style="fill:none;stroke:#0000ff;stroke-linecap:square;"/>
   </g>
   <g id="line2d_2">
    <path clip-path="url(#p5cc2dd422c)" d="M 50.8975 351.73758 
L 111.528548 350.573588 
L 147.291139 349.315027 
L 172.873197 347.968315 
L 192.877758 346.539349 
L 209.355137 345.033558 
L 223.399034 343.455955 
L 235.662289 341.811175 
L 246.566 340.10352 
L 256.397687 338.336984 
L 265.362428 336.515287 
L 273.611642 334.641899 
L 281.260322 332.720065 
L 288.39785 330.752822 
L 295.095085 328.743021 
L 301.409148 326.693342 
L 307.38676 324.606305 
L 313.066624 322.484289 
L 318.48116 320.329541 
L 328.619938 315.930233 
L 337.978623 311.424082 
L 346.688743 306.825255 
L 354.851401 302.146596 
L 362.545991 297.399806 
L 369.835998 292.59559 
L 376.772985 287.743777 
L 383.399401 282.853425 
L 389.750608 277.932905 
L 395.856377 272.989976 
L 404.609165 265.549189 
L 412.936597 258.096328 
L 420.895739 250.651432 
L 428.53325 243.232587 
L 438.282137 233.409332 
L 447.602013 223.695709 
L 458.738905 211.753242 
L 473.534708 195.493736 
L 513.925089 150.82362 
L 524.667737 139.351796 
L 535.146713 128.488445 
L 543.703599 119.903764 
L 552.119575 111.74337 
L 560.409725 104.002927 
L 568.587193 96.675552 
L 576.663484 89.752218 
L 584.648715 83.222123 
L 592.551818 77.073032 
L 600.380708 71.291586 
L 608.14242 65.863579 
L 615.843229 60.774206 
L 623.488746 56.00828 
L 631.083999 51.55042 
L 638.633507 47.385218 
L 646.141337 43.497372 
L 653.611159 39.871808 
L 661.046289 36.493771 
L 668.449728 33.348904 
L 675.824196 30.423308 
L 684.638777 27.183211 
L 693.419025 24.217491 
L 702.168372 21.505204 
L 710.889886 19.026601 
L 719.586315 16.763141 
L 728.6975 14.598639 
L 728.6975 14.598639 
" style="fill:none;stroke:#008000;stroke-linecap:square;"/>
   </g>
   <g id="line2d_3">
    <path clip-path="url(#p5cc2dd422c)" d="M 50.8975 351.862901 
L 111.528548 350.224168 
L 147.291139 347.934471 
L 172.873197 345.047486 
L 192.877758 341.618647 
L 209.355137 337.704011 
L 223.399034 333.359248 
L 235.662289 328.638786 
L 246.566 323.595103 
L 256.397687 318.278168 
L 265.362428 312.735025 
L 273.611642 307.009506 
L 281.260322 301.142054 
L 288.39785 295.169648 
L 295.095085 289.125804 
L 301.409148 283.040651 
L 307.38676 276.941044 
L 313.066624 270.850728 
L 318.48116 264.79052 
L 323.657795 258.778513 
L 333.38773 246.959109 
L 342.407842 235.490778 
L 354.851401 219.088501 
L 392.832497 168.296795 
L 401.742006 156.936971 
L 410.204285 146.535147 
L 418.280548 137.01699 
L 426.020621 128.307937 
L 433.465597 120.336076 
L 440.649761 113.033756 
L 447.602013 106.338385 
L 454.346937 100.192693 
L 460.905614 94.544686 
L 467.296258 89.347399 
L 473.534708 84.558559 
L 479.634823 80.140194 
L 485.608795 76.05824 
L 491.467405 72.282148 
L 497.220231 68.784523 
L 504.740745 64.512079 
L 512.106123 60.63983 
L 519.331861 57.123125 
L 526.431502 53.923128 
L 533.41694 51.005978 
L 540.298672 48.342075 
L 548.769081 45.329101 
L 557.107883 42.627616 
L 565.328958 40.200103 
L 573.444433 38.014363 
L 583.058509 35.671814 
L 592.551818 33.596697 
L 601.938213 31.754397 
L 612.769841 29.860314 
L 623.488746 28.203859 
L 635.618923 26.559684 
L 649.133633 24.978953 
L 662.529421 23.637303 
L 677.295835 22.379952 
L 693.419025 21.231126 
L 710.889886 20.205677 
L 728.6975 19.353356 
L 728.6975 19.353356 
" style="fill:none;stroke:#ff0000;stroke-linecap:square;"/>
   </g>
   <g id="line2d_4">
    <path clip-path="url(#p5cc2dd422c)" d="M 50.8975 350.067921 
L 111.528548 347.290918 
L 147.291139 344.468253 
L 172.873197 341.599174 
L 192.877758 338.682919 
L 209.355137 335.718712 
L 223.399034 332.705764 
L 235.662289 329.643274 
L 246.566 326.530427 
L 256.397687 323.366395 
L 265.362428 320.150338 
L 273.611642 316.881398 
L 281.260322 313.558707 
L 288.39785 310.18138 
L 295.095085 306.74852 
L 301.409148 303.259213 
L 307.38676 299.712532 
L 313.066624 296.107532 
L 318.48116 292.443254 
L 323.657795 288.718725 
L 328.619938 284.932953 
L 333.38773 281.084932 
L 337.978623 277.173637 
L 342.407842 273.198028 
L 346.688743 269.157048 
L 350.833113 265.049622 
L 354.851401 260.874658 
L 358.752917 256.631044 
L 362.545991 252.317652 
L 366.238102 247.933335 
L 369.835998 243.476926 
L 376.772985 234.343072 
L 383.399401 224.906371 
L 389.750608 215.156783 
L 395.856377 205.083932 
L 401.742006 194.6771 
L 407.429174 183.925214 
L 412.936597 172.816833 
L 418.280548 161.340137 
L 423.475258 149.482914 
L 428.53325 137.232547 
L 433.465597 124.576 
L 438.282137 111.499806 
L 442.991652 97.990051 
L 447.602013 84.03236 
L 452.1203 69.61188 
L 456.552904 54.713268 
L 460.905614 39.32067 
L 465.183692 23.417707 
L 469.39193 6.987457 
L 471.364825 -1 
L 471.364825 -1 
" style="fill:none;stroke:#00bfbf;stroke-linecap:square;"/>
   </g>
   <g id="line2d_5">
    <path clip-path="url(#p5cc2dd422c)" d="M 50.8975 352.629245 
L 111.528548 352.455682 
L 147.291139 352.279266 
L 192.877758 351.917682 
L 235.662289 351.352705 
L 265.362428 350.759396 
L 295.095085 349.921783 
L 318.48116 349.027703 
L 337.978623 348.073352 
L 354.851401 347.054666 
L 369.835998 345.967308 
L 386.607428 344.504458 
L 401.742006 342.917319 
L 415.628073 341.19533 
L 428.53325 339.327034 
L 440.649761 337.300001 
L 449.872251 335.555057 
L 458.738905 333.692483 
L 467.296258 331.704348 
L 475.582816 329.582189 
L 483.630795 327.316969 
L 491.467405 324.899046 
L 499.115835 322.318124 
L 506.595991 319.563217 
L 513.925089 316.622595 
L 521.118102 313.483738 
L 528.188136 310.133284 
L 535.146713 306.556967 
L 542.004016 302.739563 
L 548.769081 298.664818 
L 555.449958 294.315385 
L 562.053843 289.672747 
L 566.96014 285.986511 
L 571.829255 282.115429 
L 576.663484 278.050233 
L 581.464954 273.781188 
L 586.235639 269.298073 
L 590.977374 264.590154 
L 595.691867 259.646157 
L 600.380708 254.454244 
L 605.045379 249.001984 
L 609.687265 243.276321 
L 614.307661 237.263547 
L 618.907777 230.949263 
L 623.488746 224.318351 
L 628.05163 217.354933 
L 632.597424 210.042337 
L 637.127063 202.363051 
L 641.641426 194.29869 
L 646.141337 185.829943 
L 650.627571 176.936533 
L 655.10086 167.597165 
L 659.56189 157.789476 
L 664.011309 147.489983 
L 668.449728 136.674024 
L 672.877722 125.315701 
L 677.295835 113.387818 
L 681.704579 100.861813 
L 686.104438 87.707695 
L 690.49587 73.893967 
L 694.879308 59.387552 
L 699.25516 44.153716 
L 703.623813 28.155983 
L 707.985632 11.356048 
L 711.057559 -1 
L 711.057559 -1 
" style="fill:none;stroke:#bf00bf;stroke-linecap:square;"/>
   </g>
   <g id="line2d_6">
    <path clip-path="url(#p5cc2dd422c)" d="M 50.8975 20.492308 
L 720.4975 20.492308 
" style="fill:none;stroke:#000000;stroke-dasharray:6.000000,6.000000;stroke-dashoffset:0.0;"/>
   </g>
   <g id="line2d_7">
    <path clip-path="url(#p5cc2dd422c)" d="M 465.948113 352.8 
L 465.948113 7.2 
" style="fill:none;stroke:#000000;stroke-dasharray:1.000000,3.000000;stroke-dashoffset:0.0;"/>
   </g>
   <g id="line2d_8">
    <path clip-path="url(#p5cc2dd422c)" d="M 705.640891 352.8 
L 705.640891 7.2 
" style="fill:none;stroke:#000000;stroke-dasharray:6.000000,6.000000;stroke-dashoffset:0.0;"/>
   </g>
   <g id="patch_3">
    <path d="M 50.8975 7.2 
L 720.4975 7.2 
" style="fill:none;stroke:#000000;stroke-linecap:square;stroke-linejoin:miter;"/>
   </g>
   <g id="patch_4">
    <path d="M 720.4975 352.8 
L 720.4975 7.2 
" style="fill:none;stroke:#000000;stroke-linecap:square;stroke-linejoin:miter;"/>
   </g>
   <g id="patch_5">
    <path d="M 50.8975 352.8 
L 720.4975 352.8 
" style="fill:none;stroke:#000000;stroke-linecap:square;stroke-linejoin:miter;"/>
   </g>
   <g id="patch_6">
    <path d="M 50.8975 352.8 
L 50.8975 7.2 
" style="fill:none;stroke:#000000;stroke-linecap:square;stroke-linejoin:miter;"/>
   </g>
   <g id="matplotlib.axis_1">
    <g id="xtick_1">
     <g id="line2d_9">
      <defs>
       <path d="M 0 0 
L 0 4 
" id="m5ebdafcd4d" style="stroke:#000000;stroke-width:0.5;"/>
      </defs>
      <g>
       <use style="stroke:#000000;stroke-width:0.5;" x="106.408946034" xlink:href="#m5ebdafcd4d" y="352.8"/>
      </g>
     </g>
     <g id="text_1">
      <!-- 0.015625 -->
      <defs>
       <path d="M 19.1875 8.296875 
L 53.609375 8.296875 
L 53.609375 0 
L 7.328125 0 
L 7.328125 8.296875 
Q 12.9375 14.109375 22.625 23.890625 
Q 32.328125 33.6875 34.8125 36.53125 
Q 39.546875 41.84375 41.421875 45.53125 
Q 43.3125 49.21875 43.3125 52.78125 
Q 43.3125 58.59375 39.234375 62.25 
Q 35.15625 65.921875 28.609375 65.921875 
Q 23.96875 65.921875 18.8125 64.3125 
Q 13.671875 62.703125 7.8125 59.421875 
L 7.8125 69.390625 
Q 13.765625 71.78125 18.9375 73 
Q 24.125 74.21875 28.421875 74.21875 
Q 39.75 74.21875 46.484375 68.546875 
Q 53.21875 62.890625 53.21875 53.421875 
Q 53.21875 48.921875 51.53125 44.890625 
Q 49.859375 40.875 45.40625 35.40625 
Q 44.1875 33.984375 37.640625 27.21875 
Q 31.109375 20.453125 19.1875 8.296875 
" id="BitstreamVeraSans-Roman-32"/>
       <path d="M 31.78125 66.40625 
Q 24.171875 66.40625 20.328125 58.90625 
Q 16.5 51.421875 16.5 36.375 
Q 16.5 21.390625 20.328125 13.890625 
Q 24.171875 6.390625 31.78125 6.390625 
Q 39.453125 6.390625 43.28125 13.890625 
Q 47.125 21.390625 47.125 36.375 
Q 47.125 51.421875 43.28125 58.90625 
Q 39.453125 66.40625 31.78125 66.40625 
M 31.78125 74.21875 
Q 44.046875 74.21875 50.515625 64.515625 
Q 56.984375 54.828125 56.984375 36.375 
Q 56.984375 17.96875 50.515625 8.265625 
Q 44.046875 -1.421875 31.78125 -1.421875 
Q 19.53125 -1.421875 13.0625 8.265625 
Q 6.59375 17.96875 6.59375 36.375 
Q 6.59375 54.828125 13.0625 64.515625 
Q 19.53125 74.21875 31.78125 74.21875 
" id="BitstreamVeraSans-Roman-30"/>
       <path d="M 12.40625 8.296875 
L 28.515625 8.296875 
L 28.515625 63.921875 
L 10.984375 60.40625 
L 10.984375 69.390625 
L 28.421875 72.90625 
L 38.28125 72.90625 
L 38.28125 8.296875 
L 54.390625 8.296875 
L 54.390625 0 
L 12.40625 0 
z
" id="BitstreamVeraSans-Roman-31"/>
       <path d="M 33.015625 40.375 
Q 26.375 40.375 22.484375 35.828125 
Q 18.609375 31.296875 18.609375 23.390625 
Q 18.609375 15.53125 22.484375 10.953125 
Q 26.375 6.390625 33.015625 6.390625 
Q 39.65625 6.390625 43.53125 10.953125 
Q 47.40625 15.53125 47.40625 23.390625 
Q 47.40625 31.296875 43.53125 35.828125 
Q 39.65625 40.375 33.015625 40.375 
M 52.59375 71.296875 
L 52.59375 62.3125 
Q 48.875 64.0625 45.09375 64.984375 
Q 41.3125 65.921875 37.59375 65.921875 
Q 27.828125 65.921875 22.671875 59.328125 
Q 17.53125 52.734375 16.796875 39.40625 
Q 19.671875 43.65625 24.015625 45.921875 
Q 28.375 48.1875 33.59375 48.1875 
Q 44.578125 48.1875 50.953125 41.515625 
Q 57.328125 34.859375 57.328125 23.390625 
Q 57.328125 12.15625 50.6875 5.359375 
Q 44.046875 -1.421875 33.015625 -1.421875 
Q 20.359375 -1.421875 13.671875 8.265625 
Q 6.984375 17.96875 6.984375 36.375 
Q 6.984375 53.65625 15.1875 63.9375 
Q 23.390625 74.21875 37.203125 74.21875 
Q 40.921875 74.21875 44.703125 73.484375 
Q 48.484375 72.75 52.59375 71.296875 
" id="BitstreamVeraSans-Roman-36"/>
       <path d="M 10.796875 72.90625 
L 49.515625 72.90625 
L 49.515625 64.59375 
L 19.828125 64.59375 
L 19.828125 46.734375 
Q 21.96875 47.46875 24.109375 47.828125 
Q 26.265625 48.1875 28.421875 48.1875 
Q 40.625 48.1875 47.75 41.5 
Q 54.890625 34.8125 54.890625 23.390625 
Q 54.890625 11.625 47.5625 5.09375 
Q 40.234375 -1.421875 26.90625 -1.421875 
Q 22.3125 -1.421875 17.546875 -0.640625 
Q 12.796875 0.140625 7.71875 1.703125 
L 7.71875 11.625 
Q 12.109375 9.234375 16.796875 8.0625 
Q 21.484375 6.890625 26.703125 6.890625 
Q 35.15625 6.890625 40.078125 11.328125 
Q 45.015625 15.765625 45.015625 23.390625 
Q 45.015625 31 40.078125 35.4375 
Q 35.15625 39.890625 26.703125 39.890625 
Q 22.75 39.890625 18.8125 39.015625 
Q 14.890625 38.140625 10.796875 36.28125 
z
" id="BitstreamVeraSans-Roman-35"/>
       <path d="M 10.6875 12.40625 
L 21 12.40625 
L 21 0 
L 10.6875 0 
z
" id="BitstreamVeraSans-Roman-2e"/>
      </defs>
      <g transform="translate(77.7795710341 369.918125)scale(0.12 -0.12)">
       <use xlink:href="#BitstreamVeraSans-Roman-30"/>
       <use x="63.623046875" xlink:href="#BitstreamVeraSans-Roman-2e"/>
       <use x="95.41015625" xlink:href="#BitstreamVeraSans-Roman-30"/>
       <use x="159.033203125" xlink:href="#BitstreamVeraSans-Roman-31"/>
       <use x="222.65625" xlink:href="#BitstreamVeraSans-Roman-35"/>
       <use x="286.279296875" xlink:href="#BitstreamVeraSans-Roman-36"/>
       <use x="349.90234375" xlink:href="#BitstreamVeraSans-Roman-32"/>
       <use x="413.525390625" xlink:href="#BitstreamVeraSans-Roman-35"/>
      </g>
     </g>
    </g>
    <g id="xtick_2">
     <g id="line2d_10">
      <g>
       <use style="stroke:#000000;stroke-width:0.5;" x="166.332140569" xlink:href="#m5ebdafcd4d" y="352.8"/>
      </g>
     </g>
     <g id="text_2">
      <!-- 0.03125 -->
      <defs>
       <path d="M 40.578125 39.3125 
Q 47.65625 37.796875 51.625 33 
Q 55.609375 28.21875 55.609375 21.1875 
Q 55.609375 10.40625 48.1875 4.484375 
Q 40.765625 -1.421875 27.09375 -1.421875 
Q 22.515625 -1.421875 17.65625 -0.515625 
Q 12.796875 0.390625 7.625 2.203125 
L 7.625 11.71875 
Q 11.71875 9.328125 16.59375 8.109375 
Q 21.484375 6.890625 26.8125 6.890625 
Q 36.078125 6.890625 40.9375 10.546875 
Q 45.796875 14.203125 45.796875 21.1875 
Q 45.796875 27.640625 41.28125 31.265625 
Q 36.765625 34.90625 28.71875 34.90625 
L 20.21875 34.90625 
L 20.21875 43.015625 
L 29.109375 43.015625 
Q 36.375 43.015625 40.234375 45.921875 
Q 44.09375 48.828125 44.09375 54.296875 
Q 44.09375 59.90625 40.109375 62.90625 
Q 36.140625 65.921875 28.71875 65.921875 
Q 24.65625 65.921875 20.015625 65.03125 
Q 15.375 64.15625 9.8125 62.3125 
L 9.8125 71.09375 
Q 15.4375 72.65625 20.34375 73.4375 
Q 25.25 74.21875 29.59375 74.21875 
Q 40.828125 74.21875 47.359375 69.109375 
Q 53.90625 64.015625 53.90625 55.328125 
Q 53.90625 49.265625 50.4375 45.09375 
Q 46.96875 40.921875 40.578125 39.3125 
" id="BitstreamVeraSans-Roman-33"/>
      </defs>
      <g transform="translate(141.520265569 369.918125)scale(0.12 -0.12)">
       <use xlink:href="#BitstreamVeraSans-Roman-30"/>
       <use x="63.623046875" xlink:href="#BitstreamVeraSans-Roman-2e"/>
       <use x="95.41015625" xlink:href="#BitstreamVeraSans-Roman-30"/>
       <use x="159.033203125" xlink:href="#BitstreamVeraSans-Roman-33"/>
       <use x="222.65625" xlink:href="#BitstreamVeraSans-Roman-31"/>
       <use x="286.279296875" xlink:href="#BitstreamVeraSans-Roman-32"/>
       <use x="349.90234375" xlink:href="#BitstreamVeraSans-Roman-35"/>
      </g>
     </g>
    </g>
    <g id="xtick_3">
     <g id="line2d_11">
      <g>
       <use style="stroke:#000000;stroke-width:0.5;" x="226.255335104" xlink:href="#m5ebdafcd4d" y="352.8"/>
      </g>
     </g>
     <g id="text_3">
      <!-- 0.0625 -->
      <g transform="translate(205.260960104 369.918125)scale(0.12 -0.12)">
       <use xlink:href="#BitstreamVeraSans-Roman-30"/>
       <use x="63.623046875" xlink:href="#BitstreamVeraSans-Roman-2e"/>
       <use x="95.41015625" xlink:href="#BitstreamVeraSans-Roman-30"/>
       <use x="159.033203125" xlink:href="#BitstreamVeraSans-Roman-36"/>
       <use x="222.65625" xlink:href="#BitstreamVeraSans-Roman-32"/>
       <use x="286.279296875" xlink:href="#BitstreamVeraSans-Roman-35"/>
      </g>
     </g>
    </g>
    <g id="xtick_4">
     <g id="line2d_12">
      <g>
       <use style="stroke:#000000;stroke-width:0.5;" x="286.178529638" xlink:href="#m5ebdafcd4d" y="352.8"/>
      </g>
     </g>
     <g id="text_4">
      <!-- 0.125 -->
      <g transform="translate(269.001654638 369.918125)scale(0.12 -0.12)">
       <use xlink:href="#BitstreamVeraSans-Roman-30"/>
       <use x="63.623046875" xlink:href="#BitstreamVeraSans-Roman-2e"/>
       <use x="95.41015625" xlink:href="#BitstreamVeraSans-Roman-31"/>
       <use x="159.033203125" xlink:href="#BitstreamVeraSans-Roman-32"/>
       <use x="222.65625" xlink:href="#BitstreamVeraSans-Roman-35"/>
      </g>
     </g>
    </g>
    <g id="xtick_5">
     <g id="line2d_13">
      <g>
       <use style="stroke:#000000;stroke-width:0.5;" x="346.101724173" xlink:href="#m5ebdafcd4d" y="352.8"/>
      </g>
     </g>
     <g id="text_5">
      <!-- 0.25 -->
      <g transform="translate(332.742349173 369.918125)scale(0.12 -0.12)">
       <use xlink:href="#BitstreamVeraSans-Roman-30"/>
       <use x="63.623046875" xlink:href="#BitstreamVeraSans-Roman-2e"/>
       <use x="95.41015625" xlink:href="#BitstreamVeraSans-Roman-32"/>
       <use x="159.033203125" xlink:href="#BitstreamVeraSans-Roman-35"/>
      </g>
     </g>
    </g>
    <g id="xtick_6">
     <g id="line2d_14">
      <g>
       <use style="stroke:#000000;stroke-width:0.5;" x="406.024918708" xlink:href="#m5ebdafcd4d" y="352.8"/>
      </g>
     </g>
     <g id="text_6">
      <!-- 0.5 -->
      <g transform="translate(396.483043708 369.918125)scale(0.12 -0.12)">
       <use xlink:href="#BitstreamVeraSans-Roman-30"/>
       <use x="63.623046875" xlink:href="#BitstreamVeraSans-Roman-2e"/>
       <use x="95.41015625" xlink:href="#BitstreamVeraSans-Roman-35"/>
      </g>
     </g>
    </g>
    <g id="xtick_7">
     <g id="line2d_15">
      <g>
       <use style="stroke:#000000;stroke-width:0.5;" x="465.948113242" xlink:href="#m5ebdafcd4d" y="352.8"/>
      </g>
     </g>
     <g id="text_7">
      <!-- 1.0 -->
      <g transform="translate(456.406238242 369.918125)scale(0.12 -0.12)">
       <use xlink:href="#BitstreamVeraSans-Roman-31"/>
       <use x="63.623046875" xlink:href="#BitstreamVeraSans-Roman-2e"/>
       <use x="95.41015625" xlink:href="#BitstreamVeraSans-Roman-30"/>
      </g>
     </g>
    </g>
    <g id="xtick_8">
     <g id="line2d_16">
      <g>
       <use style="stroke:#000000;stroke-width:0.5;" x="525.871307777" xlink:href="#m5ebdafcd4d" y="352.8"/>
      </g>
     </g>
     <g id="text_8">
      <!-- 2.0 -->
      <g transform="translate(516.329432777 369.918125)scale(0.12 -0.12)">
       <use xlink:href="#BitstreamVeraSans-Roman-32"/>
       <use x="63.623046875" xlink:href="#BitstreamVeraSans-Roman-2e"/>
       <use x="95.41015625" xlink:href="#BitstreamVeraSans-Roman-30"/>
      </g>
     </g>
    </g>
    <g id="xtick_9">
     <g id="line2d_17">
      <g>
       <use style="stroke:#000000;stroke-width:0.5;" x="585.794502312" xlink:href="#m5ebdafcd4d" y="352.8"/>
      </g>
     </g>
     <g id="text_9">
      <!-- 4.0 -->
      <defs>
       <path d="M 37.796875 64.3125 
L 12.890625 25.390625 
L 37.796875 25.390625 
z
M 35.203125 72.90625 
L 47.609375 72.90625 
L 47.609375 25.390625 
L 58.015625 25.390625 
L 58.015625 17.1875 
L 47.609375 17.1875 
L 47.609375 0 
L 37.796875 0 
L 37.796875 17.1875 
L 4.890625 17.1875 
L 4.890625 26.703125 
z
" id="BitstreamVeraSans-Roman-34"/>
      </defs>
      <g transform="translate(576.252627312 369.918125)scale(0.12 -0.12)">
       <use xlink:href="#BitstreamVeraSans-Roman-34"/>
       <use x="63.623046875" xlink:href="#BitstreamVeraSans-Roman-2e"/>
       <use x="95.41015625" xlink:href="#BitstreamVeraSans-Roman-30"/>
      </g>
     </g>
    </g>
    <g id="xtick_10">
     <g id="line2d_18">
      <g>
       <use style="stroke:#000000;stroke-width:0.5;" x="645.717696847" xlink:href="#m5ebdafcd4d" y="352.8"/>
      </g>
     </g>
     <g id="text_10">
      <!-- 8.0 -->
      <defs>
       <path d="M 31.78125 34.625 
Q 24.75 34.625 20.71875 30.859375 
Q 16.703125 27.09375 16.703125 20.515625 
Q 16.703125 13.921875 20.71875 10.15625 
Q 24.75 6.390625 31.78125 6.390625 
Q 38.8125 6.390625 42.859375 10.171875 
Q 46.921875 13.96875 46.921875 20.515625 
Q 46.921875 27.09375 42.890625 30.859375 
Q 38.875 34.625 31.78125 34.625 
M 21.921875 38.8125 
Q 15.578125 40.375 12.03125 44.71875 
Q 8.5 49.078125 8.5 55.328125 
Q 8.5 64.0625 14.71875 69.140625 
Q 20.953125 74.21875 31.78125 74.21875 
Q 42.671875 74.21875 48.875 69.140625 
Q 55.078125 64.0625 55.078125 55.328125 
Q 55.078125 49.078125 51.53125 44.71875 
Q 48 40.375 41.703125 38.8125 
Q 48.828125 37.15625 52.796875 32.3125 
Q 56.78125 27.484375 56.78125 20.515625 
Q 56.78125 9.90625 50.3125 4.234375 
Q 43.84375 -1.421875 31.78125 -1.421875 
Q 19.734375 -1.421875 13.25 4.234375 
Q 6.78125 9.90625 6.78125 20.515625 
Q 6.78125 27.484375 10.78125 32.3125 
Q 14.796875 37.15625 21.921875 38.8125 
M 18.3125 54.390625 
Q 18.3125 48.734375 21.84375 45.5625 
Q 25.390625 42.390625 31.78125 42.390625 
Q 38.140625 42.390625 41.71875 45.5625 
Q 45.3125 48.734375 45.3125 54.390625 
Q 45.3125 60.0625 41.71875 63.234375 
Q 38.140625 66.40625 31.78125 66.40625 
Q 25.390625 66.40625 21.84375 63.234375 
Q 18.3125 60.0625 18.3125 54.390625 
" id="BitstreamVeraSans-Roman-38"/>
      </defs>
      <g transform="translate(636.175821847 369.918125)scale(0.12 -0.12)">
       <use xlink:href="#BitstreamVeraSans-Roman-38"/>
       <use x="63.623046875" xlink:href="#BitstreamVeraSans-Roman-2e"/>
       <use x="95.41015625" xlink:href="#BitstreamVeraSans-Roman-30"/>
      </g>
     </g>
    </g>
    <g id="xtick_11">
     <g id="line2d_19">
      <g>
       <use style="stroke:#000000;stroke-width:0.5;" x="705.640891381" xlink:href="#m5ebdafcd4d" y="352.8"/>
      </g>
     </g>
     <g id="text_11">
      <!-- 16.0 -->
      <g transform="translate(692.281516381 369.918125)scale(0.12 -0.12)">
       <use xlink:href="#BitstreamVeraSans-Roman-31"/>
       <use x="63.623046875" xlink:href="#BitstreamVeraSans-Roman-36"/>
       <use x="127.24609375" xlink:href="#BitstreamVeraSans-Roman-2e"/>
       <use x="159.033203125" xlink:href="#BitstreamVeraSans-Roman-30"/>
      </g>
     </g>
    </g>
    <g id="xtick_12">
     <g id="line2d_20">
      <defs>
       <path d="M 0 0 
L 0 2 
" id="m3e8dcd5353" style="stroke:#000000;stroke-width:0.5;"/>
      </defs>
      <g>
       <use style="stroke:#000000;stroke-width:0.5;" x="106.408946034" xlink:href="#m3e8dcd5353" y="352.8"/>
      </g>
     </g>
    </g>
    <g id="xtick_13">
     <g id="line2d_21">
      <g>
       <use style="stroke:#000000;stroke-width:0.5;" x="166.332140569" xlink:href="#m3e8dcd5353" y="352.8"/>
      </g>
     </g>
    </g>
    <g id="xtick_14">
     <g id="line2d_22">
      <g>
       <use style="stroke:#000000;stroke-width:0.5;" x="226.255335104" xlink:href="#m3e8dcd5353" y="352.8"/>
      </g>
     </g>
    </g>
    <g id="xtick_15">
     <g id="line2d_23">
      <g>
       <use style="stroke:#000000;stroke-width:0.5;" x="286.178529638" xlink:href="#m3e8dcd5353" y="352.8"/>
      </g>
     </g>
    </g>
    <g id="xtick_16">
     <g id="line2d_24">
      <g>
       <use style="stroke:#000000;stroke-width:0.5;" x="346.101724173" xlink:href="#m3e8dcd5353" y="352.8"/>
      </g>
     </g>
    </g>
    <g id="xtick_17">
     <g id="line2d_25">
      <g>
       <use style="stroke:#000000;stroke-width:0.5;" x="406.024918708" xlink:href="#m3e8dcd5353" y="352.8"/>
      </g>
     </g>
    </g>
    <g id="xtick_18">
     <g id="line2d_26">
      <g>
       <use style="stroke:#000000;stroke-width:0.5;" x="465.948113242" xlink:href="#m3e8dcd5353" y="352.8"/>
      </g>
     </g>
    </g>
    <g id="xtick_19">
     <g id="line2d_27">
      <g>
       <use style="stroke:#000000;stroke-width:0.5;" x="525.871307777" xlink:href="#m3e8dcd5353" y="352.8"/>
      </g>
     </g>
    </g>
    <g id="xtick_20">
     <g id="line2d_28">
      <g>
       <use style="stroke:#000000;stroke-width:0.5;" x="585.794502312" xlink:href="#m3e8dcd5353" y="352.8"/>
      </g>
     </g>
    </g>
    <g id="xtick_21">
     <g id="line2d_29">
      <g>
       <use style="stroke:#000000;stroke-width:0.5;" x="645.717696847" xlink:href="#m3e8dcd5353" y="352.8"/>
      </g>
     </g>
    </g>
    <g id="xtick_22">
     <g id="line2d_30">
      <g>
       <use style="stroke:#000000;stroke-width:0.5;" x="705.640891381" xlink:href="#m3e8dcd5353" y="352.8"/>
      </g>
     </g>
    </g>
    <g id="text_12">
     <!-- Input -->
     <defs>
      <path d="M 54.890625 33.015625 
L 54.890625 0 
L 45.90625 0 
L 45.90625 32.71875 
Q 45.90625 40.484375 42.875 44.328125 
Q 39.84375 48.1875 33.796875 48.1875 
Q 26.515625 48.1875 22.3125 43.546875 
Q 18.109375 38.921875 18.109375 30.90625 
L 18.109375 0 
L 9.078125 0 
L 9.078125 54.6875 
L 18.109375 54.6875 
L 18.109375 46.1875 
Q 21.34375 51.125 25.703125 53.5625 
Q 30.078125 56 35.796875 56 
Q 45.21875 56 50.046875 50.171875 
Q 54.890625 44.34375 54.890625 33.015625 
" id="BitstreamVeraSans-Roman-6e"/>
      <path d="M 18.3125 70.21875 
L 18.3125 54.6875 
L 36.8125 54.6875 
L 36.8125 47.703125 
L 18.3125 47.703125 
L 18.3125 18.015625 
Q 18.3125 11.328125 20.140625 9.421875 
Q 21.96875 7.515625 27.59375 7.515625 
L 36.8125 7.515625 
L 36.8125 0 
L 27.59375 0 
Q 17.1875 0 13.234375 3.875 
Q 9.28125 7.765625 9.28125 18.015625 
L 9.28125 47.703125 
L 2.6875 47.703125 
L 2.6875 54.6875 
L 9.28125 54.6875 
L 9.28125 70.21875 
z
" id="BitstreamVeraSans-Roman-74"/>
      <path d="M 8.5 21.578125 
L 8.5 54.6875 
L 17.484375 54.6875 
L 17.484375 21.921875 
Q 17.484375 14.15625 20.5 10.265625 
Q 23.53125 6.390625 29.59375 6.390625 
Q 36.859375 6.390625 41.078125 11.03125 
Q 45.3125 15.671875 45.3125 23.6875 
L 45.3125 54.6875 
L 54.296875 54.6875 
L 54.296875 0 
L 45.3125 0 
L 45.3125 8.40625 
Q 42.046875 3.421875 37.71875 1 
Q 33.40625 -1.421875 27.6875 -1.421875 
Q 18.265625 -1.421875 13.375 4.4375 
Q 8.5 10.296875 8.5 21.578125 
" id="BitstreamVeraSans-Roman-75"/>
      <path d="M 18.109375 8.203125 
L 18.109375 -20.796875 
L 9.078125 -20.796875 
L 9.078125 54.6875 
L 18.109375 54.6875 
L 18.109375 46.390625 
Q 20.953125 51.265625 25.265625 53.625 
Q 29.59375 56 35.59375 56 
Q 45.5625 56 51.78125 48.09375 
Q 58.015625 40.1875 58.015625 27.296875 
Q 58.015625 14.40625 51.78125 6.484375 
Q 45.5625 -1.421875 35.59375 -1.421875 
Q 29.59375 -1.421875 25.265625 0.953125 
Q 20.953125 3.328125 18.109375 8.203125 
M 48.6875 27.296875 
Q 48.6875 37.203125 44.609375 42.84375 
Q 40.53125 48.484375 33.40625 48.484375 
Q 26.265625 48.484375 22.1875 42.84375 
Q 18.109375 37.203125 18.109375 27.296875 
Q 18.109375 17.390625 22.1875 11.75 
Q 26.265625 6.109375 33.40625 6.109375 
Q 40.53125 6.109375 44.609375 11.75 
Q 48.6875 17.390625 48.6875 27.296875 
" id="BitstreamVeraSans-Roman-70"/>
      <path d="M 9.8125 72.90625 
L 19.671875 72.90625 
L 19.671875 0 
L 9.8125 0 
z
" id="BitstreamVeraSans-Roman-49"/>
     </defs>
     <g transform="translate(370.16125 386.531875)scale(0.12 -0.12)">
      <use xlink:href="#BitstreamVeraSans-Roman-49"/>
      <use x="29.4921875" xlink:href="#BitstreamVeraSans-Roman-6e"/>
      <use x="92.87109375" xlink:href="#BitstreamVeraSans-Roman-70"/>
      <use x="156.34765625" xlink:href="#BitstreamVeraSans-Roman-75"/>
      <use x="219.7265625" xlink:href="#BitstreamVeraSans-Roman-74"/>
     </g>
    </g>
   </g>
   <g id="matplotlib.axis_2">
    <g id="ytick_1">
     <g id="line2d_31">
      <defs>
       <path d="M 0 0 
L -4 0 
" id="mc8f1f1b1f5" style="stroke:#000000;stroke-width:0.5;"/>
      </defs>
      <g>
       <use style="stroke:#000000;stroke-width:0.5;" x="50.8975" xlink:href="#mc8f1f1b1f5" y="352.8"/>
      </g>
     </g>
     <g id="text_13">
      <!-- 0.0 -->
      <g transform="translate(23.81375 356.11125)scale(0.12 -0.12)">
       <use xlink:href="#BitstreamVeraSans-Roman-30"/>
       <use x="63.623046875" xlink:href="#BitstreamVeraSans-Roman-2e"/>
       <use x="95.41015625" xlink:href="#BitstreamVeraSans-Roman-30"/>
      </g>
     </g>
    </g>
    <g id="ytick_2">
     <g id="line2d_32">
      <g>
       <use style="stroke:#000000;stroke-width:0.5;" x="50.8975" xlink:href="#mc8f1f1b1f5" y="286.338461538"/>
      </g>
     </g>
     <g id="text_14">
      <!-- 0.2 -->
      <g transform="translate(23.81375 289.649711538)scale(0.12 -0.12)">
       <use xlink:href="#BitstreamVeraSans-Roman-30"/>
       <use x="63.623046875" xlink:href="#BitstreamVeraSans-Roman-2e"/>
       <use x="95.41015625" xlink:href="#BitstreamVeraSans-Roman-32"/>
      </g>
     </g>
    </g>
    <g id="ytick_3">
     <g id="line2d_33">
      <g>
       <use style="stroke:#000000;stroke-width:0.5;" x="50.8975" xlink:href="#mc8f1f1b1f5" y="219.876923077"/>
      </g>
     </g>
     <g id="text_15">
      <!-- 0.4 -->
      <g transform="translate(23.81375 223.188173077)scale(0.12 -0.12)">
       <use xlink:href="#BitstreamVeraSans-Roman-30"/>
       <use x="63.623046875" xlink:href="#BitstreamVeraSans-Roman-2e"/>
       <use x="95.41015625" xlink:href="#BitstreamVeraSans-Roman-34"/>
      </g>
     </g>
    </g>
    <g id="ytick_4">
     <g id="line2d_34">
      <g>
       <use style="stroke:#000000;stroke-width:0.5;" x="50.8975" xlink:href="#mc8f1f1b1f5" y="153.415384615"/>
      </g>
     </g>
     <g id="text_16">
      <!-- 0.6 -->
      <g transform="translate(23.81375 156.726634615)scale(0.12 -0.12)">
       <use xlink:href="#BitstreamVeraSans-Roman-30"/>
       <use x="63.623046875" xlink:href="#BitstreamVeraSans-Roman-2e"/>
       <use x="95.41015625" xlink:href="#BitstreamVeraSans-Roman-36"/>
      </g>
     </g>
    </g>
    <g id="ytick_5">
     <g id="line2d_35">
      <g>
       <use style="stroke:#000000;stroke-width:0.5;" x="50.8975" xlink:href="#mc8f1f1b1f5" y="86.9538461538"/>
      </g>
     </g>
     <g id="text_17">
      <!-- 0.8 -->
      <g transform="translate(23.81375 90.2650961538)scale(0.12 -0.12)">
       <use xlink:href="#BitstreamVeraSans-Roman-30"/>
       <use x="63.623046875" xlink:href="#BitstreamVeraSans-Roman-2e"/>
       <use x="95.41015625" xlink:href="#BitstreamVeraSans-Roman-38"/>
      </g>
     </g>
    </g>
    <g id="ytick_6">
     <g id="line2d_36">
      <g>
       <use style="stroke:#000000;stroke-width:0.5;" x="50.8975" xlink:href="#mc8f1f1b1f5" y="20.4923076923"/>
      </g>
     </g>
     <g id="text_18">
      <!-- 1.0 -->
      <g transform="translate(23.81375 23.8035576923)scale(0.12 -0.12)">
       <use xlink:href="#BitstreamVeraSans-Roman-31"/>
       <use x="63.623046875" xlink:href="#BitstreamVeraSans-Roman-2e"/>
       <use x="95.41015625" xlink:href="#BitstreamVeraSans-Roman-30"/>
      </g>
     </g>
    </g>
    <g id="text_19">
     <!-- Tonemapped -->
     <defs>
      <path d="M 52 44.1875 
Q 55.375 50.25 60.0625 53.125 
Q 64.75 56 71.09375 56 
Q 79.640625 56 84.28125 50.015625 
Q 88.921875 44.046875 88.921875 33.015625 
L 88.921875 0 
L 79.890625 0 
L 79.890625 32.71875 
Q 79.890625 40.578125 77.09375 44.375 
Q 74.3125 48.1875 68.609375 48.1875 
Q 61.625 48.1875 57.5625 43.546875 
Q 53.515625 38.921875 53.515625 30.90625 
L 53.515625 0 
L 44.484375 0 
L 44.484375 32.71875 
Q 44.484375 40.625 41.703125 44.40625 
Q 38.921875 48.1875 33.109375 48.1875 
Q 26.21875 48.1875 22.15625 43.53125 
Q 18.109375 38.875 18.109375 30.90625 
L 18.109375 0 
L 9.078125 0 
L 9.078125 54.6875 
L 18.109375 54.6875 
L 18.109375 46.1875 
Q 21.1875 51.21875 25.484375 53.609375 
Q 29.78125 56 35.6875 56 
Q 41.65625 56 45.828125 52.96875 
Q 50 49.953125 52 44.1875 
" id="BitstreamVeraSans-Roman-6d"/>
      <path d="M 30.609375 48.390625 
Q 23.390625 48.390625 19.1875 42.75 
Q 14.984375 37.109375 14.984375 27.296875 
Q 14.984375 17.484375 19.15625 11.84375 
Q 23.34375 6.203125 30.609375 6.203125 
Q 37.796875 6.203125 41.984375 11.859375 
Q 46.1875 17.53125 46.1875 27.296875 
Q 46.1875 37.015625 41.984375 42.703125 
Q 37.796875 48.390625 30.609375 48.390625 
M 30.609375 56 
Q 42.328125 56 49.015625 48.375 
Q 55.71875 40.765625 55.71875 27.296875 
Q 55.71875 13.875 49.015625 6.21875 
Q 42.328125 -1.421875 30.609375 -1.421875 
Q 18.84375 -1.421875 12.171875 6.21875 
Q 5.515625 13.875 5.515625 27.296875 
Q 5.515625 40.765625 12.171875 48.375 
Q 18.84375 56 30.609375 56 
" id="BitstreamVeraSans-Roman-6f"/>
      <path d="M -0.296875 72.90625 
L 61.375 72.90625 
L 61.375 64.59375 
L 35.5 64.59375 
L 35.5 0 
L 25.59375 0 
L 25.59375 64.59375 
L -0.296875 64.59375 
z
" id="BitstreamVeraSans-Roman-54"/>
      <path d="M 56.203125 29.59375 
L 56.203125 25.203125 
L 14.890625 25.203125 
Q 15.484375 15.921875 20.484375 11.0625 
Q 25.484375 6.203125 34.421875 6.203125 
Q 39.59375 6.203125 44.453125 7.46875 
Q 49.3125 8.734375 54.109375 11.28125 
L 54.109375 2.78125 
Q 49.265625 0.734375 44.1875 -0.34375 
Q 39.109375 -1.421875 33.890625 -1.421875 
Q 20.796875 -1.421875 13.15625 6.1875 
Q 5.515625 13.8125 5.515625 26.8125 
Q 5.515625 40.234375 12.765625 48.109375 
Q 20.015625 56 32.328125 56 
Q 43.359375 56 49.78125 48.890625 
Q 56.203125 41.796875 56.203125 29.59375 
M 47.21875 32.234375 
Q 47.125 39.59375 43.09375 43.984375 
Q 39.0625 48.390625 32.421875 48.390625 
Q 24.90625 48.390625 20.390625 44.140625 
Q 15.875 39.890625 15.1875 32.171875 
z
" id="BitstreamVeraSans-Roman-65"/>
      <path d="M 45.40625 46.390625 
L 45.40625 75.984375 
L 54.390625 75.984375 
L 54.390625 0 
L 45.40625 0 
L 45.40625 8.203125 
Q 42.578125 3.328125 38.25 0.953125 
Q 33.9375 -1.421875 27.875 -1.421875 
Q 17.96875 -1.421875 11.734375 6.484375 
Q 5.515625 14.40625 5.515625 27.296875 
Q 5.515625 40.1875 11.734375 48.09375 
Q 17.96875 56 27.875 56 
Q 33.9375 56 38.25 53.625 
Q 42.578125 51.265625 45.40625 46.390625 
M 14.796875 27.296875 
Q 14.796875 17.390625 18.875 11.75 
Q 22.953125 6.109375 30.078125 6.109375 
Q 37.203125 6.109375 41.296875 11.75 
Q 45.40625 17.390625 45.40625 27.296875 
Q 45.40625 37.203125 41.296875 42.84375 
Q 37.203125 48.484375 30.078125 48.484375 
Q 22.953125 48.484375 18.875 42.84375 
Q 14.796875 37.203125 14.796875 27.296875 
" id="BitstreamVeraSans-Roman-64"/>
      <path d="M 34.28125 27.484375 
Q 23.390625 27.484375 19.1875 25 
Q 14.984375 22.515625 14.984375 16.5 
Q 14.984375 11.71875 18.140625 8.90625 
Q 21.296875 6.109375 26.703125 6.109375 
Q 34.1875 6.109375 38.703125 11.40625 
Q 43.21875 16.703125 43.21875 25.484375 
L 43.21875 27.484375 
z
M 52.203125 31.203125 
L 52.203125 0 
L 43.21875 0 
L 43.21875 8.296875 
Q 40.140625 3.328125 35.546875 0.953125 
Q 30.953125 -1.421875 24.3125 -1.421875 
Q 15.921875 -1.421875 10.953125 3.296875 
Q 6 8.015625 6 15.921875 
Q 6 25.140625 12.171875 29.828125 
Q 18.359375 34.515625 30.609375 34.515625 
L 43.21875 34.515625 
L 43.21875 35.40625 
Q 43.21875 41.609375 39.140625 45 
Q 35.0625 48.390625 27.6875 48.390625 
Q 23 48.390625 18.546875 47.265625 
Q 14.109375 46.140625 10.015625 43.890625 
L 10.015625 52.203125 
Q 14.9375 54.109375 19.578125 55.046875 
Q 24.21875 56 28.609375 56 
Q 40.484375 56 46.34375 49.84375 
Q 52.203125 43.703125 52.203125 31.203125 
" id="BitstreamVeraSans-Roman-61"/>
     </defs>
     <g transform="translate(16.318125 219.4546875)rotate(-90.0)scale(0.12 -0.12)">
      <use xlink:href="#BitstreamVeraSans-Roman-54"/>
      <use x="60.818359375" xlink:href="#BitstreamVeraSans-Roman-6f"/>
      <use x="122.0" xlink:href="#BitstreamVeraSans-Roman-6e"/>
      <use x="185.37890625" xlink:href="#BitstreamVeraSans-Roman-65"/>
      <use x="246.90234375" xlink:href="#BitstreamVeraSans-Roman-6d"/>
      <use x="344.314453125" xlink:href="#BitstreamVeraSans-Roman-61"/>
      <use x="405.59375" xlink:href="#BitstreamVeraSans-Roman-70"/>
      <use x="469.0703125" xlink:href="#BitstreamVeraSans-Roman-70"/>
      <use x="532.546875" xlink:href="#BitstreamVeraSans-Roman-65"/>
      <use x="594.0703125" xlink:href="#BitstreamVeraSans-Roman-64"/>
     </g>
    </g>
   </g>
   <g id="legend_1">
    <g id="patch_7">
     <path d="M 58.0975 124.4025 
L 281.1175 124.4025 
L 281.1175 14.4 
L 58.0975 14.4 
z
" style="fill:#ffffff;stroke:#000000;stroke-linejoin:miter;"/>
    </g>
    <g id="line2d_37">
     <path d="M 68.1775 26.06175 
L 88.3375 26.06175 
" style="fill:none;stroke:#0000ff;stroke-linecap:square;"/>
    </g>
    <g id="line2d_38"/>
    <g id="text_20">
     <!-- Lottes -->
     <defs>
      <path d="M 9.8125 72.90625 
L 19.671875 72.90625 
L 19.671875 8.296875 
L 55.171875 8.296875 
L 55.171875 0 
L 9.8125 0 
z
" id="BitstreamVeraSans-Roman-4c"/>
      <path d="M 44.28125 53.078125 
L 44.28125 44.578125 
Q 40.484375 46.53125 36.375 47.5 
Q 32.28125 48.484375 27.875 48.484375 
Q 21.1875 48.484375 17.84375 46.4375 
Q 14.5 44.390625 14.5 40.28125 
Q 14.5 37.15625 16.890625 35.375 
Q 19.28125 33.59375 26.515625 31.984375 
L 29.59375 31.296875 
Q 39.15625 29.25 43.1875 25.515625 
Q 47.21875 21.78125 47.21875 15.09375 
Q 47.21875 7.46875 41.1875 3.015625 
Q 35.15625 -1.421875 24.609375 -1.421875 
Q 20.21875 -1.421875 15.453125 -0.5625 
Q 10.6875 0.296875 5.421875 2 
L 5.421875 11.28125 
Q 10.40625 8.6875 15.234375 7.390625 
Q 20.0625 6.109375 24.8125 6.109375 
Q 31.15625 6.109375 34.5625 8.28125 
Q 37.984375 10.453125 37.984375 14.40625 
Q 37.984375 18.0625 35.515625 20.015625 
Q 33.0625 21.96875 24.703125 23.78125 
L 21.578125 24.515625 
Q 13.234375 26.265625 9.515625 29.90625 
Q 5.8125 33.546875 5.8125 39.890625 
Q 5.8125 47.609375 11.28125 51.796875 
Q 16.75 56 26.8125 56 
Q 31.78125 56 36.171875 55.265625 
Q 40.578125 54.546875 44.28125 53.078125 
" id="BitstreamVeraSans-Roman-73"/>
     </defs>
     <g transform="translate(104.1775 31.10175)scale(0.144 -0.144)">
      <use xlink:href="#BitstreamVeraSans-Roman-4c"/>
      <use x="55.697265625" xlink:href="#BitstreamVeraSans-Roman-6f"/>
      <use x="116.87890625" xlink:href="#BitstreamVeraSans-Roman-74"/>
      <use x="156.087890625" xlink:href="#BitstreamVeraSans-Roman-74"/>
      <use x="195.296875" xlink:href="#BitstreamVeraSans-Roman-65"/>
      <use x="256.8203125" xlink:href="#BitstreamVeraSans-Roman-73"/>
     </g>
    </g>
    <g id="line2d_39">
     <path d="M 68.1775 47.19825 
L 88.3375 47.19825 
" style="fill:none;stroke:#008000;stroke-linecap:square;"/>
    </g>
    <g id="line2d_40"/>
    <g id="text_21">
     <!-- Uncharted (normalized) -->
     <defs>
      <path id="BitstreamVeraSans-Roman-20"/>
      <path d="M 8.015625 75.875 
L 15.828125 75.875 
Q 23.140625 64.359375 26.78125 53.3125 
Q 30.421875 42.28125 30.421875 31.390625 
Q 30.421875 20.453125 26.78125 9.375 
Q 23.140625 -1.703125 15.828125 -13.1875 
L 8.015625 -13.1875 
Q 14.5 -2 17.703125 9.0625 
Q 20.90625 20.125 20.90625 31.390625 
Q 20.90625 42.671875 17.703125 53.65625 
Q 14.5 64.65625 8.015625 75.875 
" id="BitstreamVeraSans-Roman-29"/>
      <path d="M 31 75.875 
Q 24.46875 64.65625 21.28125 53.65625 
Q 18.109375 42.671875 18.109375 31.390625 
Q 18.109375 20.125 21.3125 9.0625 
Q 24.515625 -2 31 -13.1875 
L 23.1875 -13.1875 
Q 15.875 -1.703125 12.234375 9.375 
Q 8.59375 20.453125 8.59375 31.390625 
Q 8.59375 42.28125 12.203125 53.3125 
Q 15.828125 64.359375 23.1875 75.875 
z
" id="BitstreamVeraSans-Roman-28"/>
      <path d="M 9.421875 75.984375 
L 18.40625 75.984375 
L 18.40625 0 
L 9.421875 0 
z
" id="BitstreamVeraSans-Roman-6c"/>
      <path d="M 5.515625 54.6875 
L 48.1875 54.6875 
L 48.1875 46.484375 
L 14.40625 7.171875 
L 48.1875 7.171875 
L 48.1875 0 
L 4.296875 0 
L 4.296875 8.203125 
L 38.09375 47.515625 
L 5.515625 47.515625 
z
" id="BitstreamVeraSans-Roman-7a"/>
      <path d="M 9.421875 54.6875 
L 18.40625 54.6875 
L 18.40625 0 
L 9.421875 0 
z
M 9.421875 75.984375 
L 18.40625 75.984375 
L 18.40625 64.59375 
L 9.421875 64.59375 
z
" id="BitstreamVeraSans-Roman-69"/>
      <path d="M 8.6875 72.90625 
L 18.609375 72.90625 
L 18.609375 28.609375 
Q 18.609375 16.890625 22.84375 11.734375 
Q 27.09375 6.59375 36.625 6.59375 
Q 46.09375 6.59375 50.34375 11.734375 
Q 54.59375 16.890625 54.59375 28.609375 
L 54.59375 72.90625 
L 64.5 72.90625 
L 64.5 27.390625 
Q 64.5 13.140625 57.4375 5.859375 
Q 50.390625 -1.421875 36.625 -1.421875 
Q 22.796875 -1.421875 15.734375 5.859375 
Q 8.6875 13.140625 8.6875 27.390625 
z
" id="BitstreamVeraSans-Roman-55"/>
      <path d="M 41.109375 46.296875 
Q 39.59375 47.171875 37.8125 47.578125 
Q 36.03125 48 33.890625 48 
Q 26.265625 48 22.1875 43.046875 
Q 18.109375 38.09375 18.109375 28.8125 
L 18.109375 0 
L 9.078125 0 
L 9.078125 54.6875 
L 18.109375 54.6875 
L 18.109375 46.1875 
Q 20.953125 51.171875 25.484375 53.578125 
Q 30.03125 56 36.53125 56 
Q 37.453125 56 38.578125 55.875 
Q 39.703125 55.765625 41.0625 55.515625 
z
" id="BitstreamVeraSans-Roman-72"/>
      <path d="M 48.78125 52.59375 
L 48.78125 44.1875 
Q 44.96875 46.296875 41.140625 47.34375 
Q 37.3125 48.390625 33.40625 48.390625 
Q 24.65625 48.390625 19.8125 42.84375 
Q 14.984375 37.3125 14.984375 27.296875 
Q 14.984375 17.28125 19.8125 11.734375 
Q 24.65625 6.203125 33.40625 6.203125 
Q 37.3125 6.203125 41.140625 7.25 
Q 44.96875 8.296875 48.78125 10.40625 
L 48.78125 2.09375 
Q 45.015625 0.34375 40.984375 -0.53125 
Q 36.96875 -1.421875 32.421875 -1.421875 
Q 20.0625 -1.421875 12.78125 6.34375 
Q 5.515625 14.109375 5.515625 27.296875 
Q 5.515625 40.671875 12.859375 48.328125 
Q 20.21875 56 33.015625 56 
Q 37.15625 56 41.109375 55.140625 
Q 45.0625 54.296875 48.78125 52.59375 
" id="BitstreamVeraSans-Roman-63"/>
      <path d="M 54.890625 33.015625 
L 54.890625 0 
L 45.90625 0 
L 45.90625 32.71875 
Q 45.90625 40.484375 42.875 44.328125 
Q 39.84375 48.1875 33.796875 48.1875 
Q 26.515625 48.1875 22.3125 43.546875 
Q 18.109375 38.921875 18.109375 30.90625 
L 18.109375 0 
L 9.078125 0 
L 9.078125 75.984375 
L 18.109375 75.984375 
L 18.109375 46.1875 
Q 21.34375 51.125 25.703125 53.5625 
Q 30.078125 56 35.796875 56 
Q 45.21875 56 50.046875 50.171875 
Q 54.890625 44.34375 54.890625 33.015625 
" id="BitstreamVeraSans-Roman-68"/>
     </defs>
     <g transform="translate(104.1775 52.23825)scale(0.144 -0.144)">
      <use xlink:href="#BitstreamVeraSans-Roman-55"/>
      <use x="73.193359375" xlink:href="#BitstreamVeraSans-Roman-6e"/>
      <use x="136.572265625" xlink:href="#BitstreamVeraSans-Roman-63"/>
      <use x="191.552734375" xlink:href="#BitstreamVeraSans-Roman-68"/>
      <use x="254.931640625" xlink:href="#BitstreamVeraSans-Roman-61"/>
      <use x="316.2109375" xlink:href="#BitstreamVeraSans-Roman-72"/>
      <use x="357.32421875" xlink:href="#BitstreamVeraSans-Roman-74"/>
      <use x="396.533203125" xlink:href="#BitstreamVeraSans-Roman-65"/>
      <use x="458.056640625" xlink:href="#BitstreamVeraSans-Roman-64"/>
      <use x="521.533203125" xlink:href="#BitstreamVeraSans-Roman-20"/>
      <use x="553.3203125" xlink:href="#BitstreamVeraSans-Roman-28"/>
      <use x="592.333984375" xlink:href="#BitstreamVeraSans-Roman-6e"/>
      <use x="655.712890625" xlink:href="#BitstreamVeraSans-Roman-6f"/>
      <use x="716.89453125" xlink:href="#BitstreamVeraSans-Roman-72"/>
      <use x="757.9921875" xlink:href="#BitstreamVeraSans-Roman-6d"/>
      <use x="855.404296875" xlink:href="#BitstreamVeraSans-Roman-61"/>
      <use x="916.68359375" xlink:href="#BitstreamVeraSans-Roman-6c"/>
      <use x="944.466796875" xlink:href="#BitstreamVeraSans-Roman-69"/>
      <use x="972.25" xlink:href="#BitstreamVeraSans-Roman-7a"/>
      <use x="1024.74023438" xlink:href="#BitstreamVeraSans-Roman-65"/>
      <use x="1086.26367188" xlink:href="#BitstreamVeraSans-Roman-64"/>
      <use x="1149.74023438" xlink:href="#BitstreamVeraSans-Roman-29"/>
     </g>
    </g>
    <g id="line2d_41">
     <path d="M 68.1775 68.33475 
L 88.3375 68.33475 
" style="fill:none;stroke:#ff0000;stroke-linecap:square;"/>
    </g>
    <g id="line2d_42"/>
    <g id="text_22">
     <!-- ACES (normalized) -->
     <defs>
      <path d="M 9.8125 72.90625 
L 55.90625 72.90625 
L 55.90625 64.59375 
L 19.671875 64.59375 
L 19.671875 43.015625 
L 54.390625 43.015625 
L 54.390625 34.71875 
L 19.671875 34.71875 
L 19.671875 8.296875 
L 56.78125 8.296875 
L 56.78125 0 
L 9.8125 0 
z
" id="BitstreamVeraSans-Roman-45"/>
      <path d="M 53.515625 70.515625 
L 53.515625 60.890625 
Q 47.90625 63.578125 42.921875 64.890625 
Q 37.9375 66.21875 33.296875 66.21875 
Q 25.25 66.21875 20.875 63.09375 
Q 16.5 59.96875 16.5 54.203125 
Q 16.5 49.359375 19.40625 46.890625 
Q 22.3125 44.4375 30.421875 42.921875 
L 36.375 41.703125 
Q 47.40625 39.59375 52.65625 34.296875 
Q 57.90625 29 57.90625 20.125 
Q 57.90625 9.515625 50.796875 4.046875 
Q 43.703125 -1.421875 29.984375 -1.421875 
Q 24.8125 -1.421875 18.96875 -0.25 
Q 13.140625 0.921875 6.890625 3.21875 
L 6.890625 13.375 
Q 12.890625 10.015625 18.65625 8.296875 
Q 24.421875 6.59375 29.984375 6.59375 
Q 38.421875 6.59375 43.015625 9.90625 
Q 47.609375 13.234375 47.609375 19.390625 
Q 47.609375 24.75 44.3125 27.78125 
Q 41.015625 30.8125 33.5 32.328125 
L 27.484375 33.5 
Q 16.453125 35.6875 11.515625 40.375 
Q 6.59375 45.0625 6.59375 53.421875 
Q 6.59375 63.09375 13.40625 68.65625 
Q 20.21875 74.21875 32.171875 74.21875 
Q 37.3125 74.21875 42.625 73.28125 
Q 47.953125 72.359375 53.515625 70.515625 
" id="BitstreamVeraSans-Roman-53"/>
      <path d="M 64.40625 67.28125 
L 64.40625 56.890625 
Q 59.421875 61.53125 53.78125 63.8125 
Q 48.140625 66.109375 41.796875 66.109375 
Q 29.296875 66.109375 22.65625 58.46875 
Q 16.015625 50.828125 16.015625 36.375 
Q 16.015625 21.96875 22.65625 14.328125 
Q 29.296875 6.6875 41.796875 6.6875 
Q 48.140625 6.6875 53.78125 8.984375 
Q 59.421875 11.28125 64.40625 15.921875 
L 64.40625 5.609375 
Q 59.234375 2.09375 53.4375 0.328125 
Q 47.65625 -1.421875 41.21875 -1.421875 
Q 24.65625 -1.421875 15.125 8.703125 
Q 5.609375 18.84375 5.609375 36.375 
Q 5.609375 53.953125 15.125 64.078125 
Q 24.65625 74.21875 41.21875 74.21875 
Q 47.75 74.21875 53.53125 72.484375 
Q 59.328125 70.75 64.40625 67.28125 
" id="BitstreamVeraSans-Roman-43"/>
      <path d="M 34.1875 63.1875 
L 20.796875 26.90625 
L 47.609375 26.90625 
z
M 28.609375 72.90625 
L 39.796875 72.90625 
L 67.578125 0 
L 57.328125 0 
L 50.6875 18.703125 
L 17.828125 18.703125 
L 11.1875 0 
L 0.78125 0 
z
" id="BitstreamVeraSans-Roman-41"/>
     </defs>
     <g transform="translate(104.1775 73.37475)scale(0.144 -0.144)">
      <use xlink:href="#BitstreamVeraSans-Roman-41"/>
      <use x="68.392578125" xlink:href="#BitstreamVeraSans-Roman-43"/>
      <use x="138.216796875" xlink:href="#BitstreamVeraSans-Roman-45"/>
      <use x="201.400390625" xlink:href="#BitstreamVeraSans-Roman-53"/>
      <use x="264.876953125" xlink:href="#BitstreamVeraSans-Roman-20"/>
      <use x="296.6640625" xlink:href="#BitstreamVeraSans-Roman-28"/>
      <use x="335.677734375" xlink:href="#BitstreamVeraSans-Roman-6e"/>
      <use x="399.056640625" xlink:href="#BitstreamVeraSans-Roman-6f"/>
      <use x="460.23828125" xlink:href="#BitstreamVeraSans-Roman-72"/>
      <use x="501.3359375" xlink:href="#BitstreamVeraSans-Roman-6d"/>
      <use x="598.748046875" xlink:href="#BitstreamVeraSans-Roman-61"/>
      <use x="660.02734375" xlink:href="#BitstreamVeraSans-Roman-6c"/>
      <use x="687.810546875" xlink:href="#BitstreamVeraSans-Roman-69"/>
      <use x="715.59375" xlink:href="#BitstreamVeraSans-Roman-7a"/>
      <use x="768.083984375" xlink:href="#BitstreamVeraSans-Roman-65"/>
      <use x="829.607421875" xlink:href="#BitstreamVeraSans-Roman-64"/>
      <use x="893.083984375" xlink:href="#BitstreamVeraSans-Roman-29"/>
     </g>
    </g>
    <g id="line2d_43">
     <path d="M 68.1775 89.47125 
L 88.3375 89.47125 
" style="fill:none;stroke:#00bfbf;stroke-linecap:square;"/>
    </g>
    <g id="line2d_44"/>
    <g id="text_23">
     <!-- Linear (clamped) -->
     <g transform="translate(104.1775 94.51125)scale(0.144 -0.144)">
      <use xlink:href="#BitstreamVeraSans-Roman-4c"/>
      <use x="55.712890625" xlink:href="#BitstreamVeraSans-Roman-69"/>
      <use x="83.49609375" xlink:href="#BitstreamVeraSans-Roman-6e"/>
      <use x="146.875" xlink:href="#BitstreamVeraSans-Roman-65"/>
      <use x="208.3984375" xlink:href="#BitstreamVeraSans-Roman-61"/>
      <use x="269.677734375" xlink:href="#BitstreamVeraSans-Roman-72"/>
      <use x="310.791015625" xlink:href="#BitstreamVeraSans-Roman-20"/>
      <use x="342.578125" xlink:href="#BitstreamVeraSans-Roman-28"/>
      <use x="381.591796875" xlink:href="#BitstreamVeraSans-Roman-63"/>
      <use x="436.572265625" xlink:href="#BitstreamVeraSans-Roman-6c"/>
      <use x="464.35546875" xlink:href="#BitstreamVeraSans-Roman-61"/>
      <use x="525.634765625" xlink:href="#BitstreamVeraSans-Roman-6d"/>
      <use x="623.046875" xlink:href="#BitstreamVeraSans-Roman-70"/>
      <use x="686.5234375" xlink:href="#BitstreamVeraSans-Roman-65"/>
      <use x="748.046875" xlink:href="#BitstreamVeraSans-Roman-64"/>
      <use x="811.5234375" xlink:href="#BitstreamVeraSans-Roman-29"/>
     </g>
    </g>
    <g id="line2d_45">
     <path d="M 68.1775 110.60775 
L 88.3375 110.60775 
" style="fill:none;stroke:#bf00bf;stroke-linecap:square;"/>
    </g>
    <g id="line2d_46"/>
    <g id="text_24">
     <!-- Linear (normalized) -->
     <g transform="translate(104.1775 115.64775)scale(0.144 -0.144)">
      <use xlink:href="#BitstreamVeraSans-Roman-4c"/>
      <use x="55.712890625" xlink:href="#BitstreamVeraSans-Roman-69"/>
      <use x="83.49609375" xlink:href="#BitstreamVeraSans-Roman-6e"/>
      <use x="146.875" xlink:href="#BitstreamVeraSans-Roman-65"/>
      <use x="208.3984375" xlink:href="#BitstreamVeraSans-Roman-61"/>
      <use x="269.677734375" xlink:href="#BitstreamVeraSans-Roman-72"/>
      <use x="310.791015625" xlink:href="#BitstreamVeraSans-Roman-20"/>
      <use x="342.578125" xlink:href="#BitstreamVeraSans-Roman-28"/>
      <use x="381.591796875" xlink:href="#BitstreamVeraSans-Roman-6e"/>
      <use x="444.970703125" xlink:href="#BitstreamVeraSans-Roman-6f"/>
      <use x="506.15234375" xlink:href="#BitstreamVeraSans-Roman-72"/>
      <use x="547.25" xlink:href="#BitstreamVeraSans-Roman-6d"/>
      <use x="644.662109375" xlink:href="#BitstreamVeraSans-Roman-61"/>
      <use x="705.94140625" xlink:href="#BitstreamVeraSans-Roman-6c"/>
      <use x="733.724609375" xlink:href="#BitstreamVeraSans-Roman-69"/>
      <use x="761.5078125" xlink:href="#BitstreamVeraSans-Roman-7a"/>
      <use x="813.998046875" xlink:href="#BitstreamVeraSans-Roman-65"/>
      <use x="875.521484375" xlink:href="#BitstreamVeraSans-Roman-64"/>
      <use x="938.998046875" xlink:href="#BitstreamVeraSans-Roman-29"/>
     </g>
    </g>
   </g>
  </g>
 </g>
 <defs>
  <clipPath id="p5cc2dd422c">
   <rect height="345.6" width="669.6" x="50.8975" y="7.2"/>
  </clipPath>
 </defs>
</svg>
